<?xml version="1.0" encoding="iso-8859-1"?>
<!-- Generator: Adobe Illustrator 18.0.0, SVG Export Plug-In . SVG Version: 6.00 Build 0)  -->
<!DOCTYPE svg PUBLIC "-//W3C//DTD SVG 1.1//EN" "http://www.w3.org/Graphics/SVG/1.1/DTD/svg11.dtd">
<svg xmlns="http://www.w3.org/2000/svg" xmlns:xlink="http://www.w3.org/1999/xlink" version="1.1" id="Capa_1" x="0px" y="0px" viewBox="0 0 297 297" style="enable-background:new 0 0 297 297;" xml:space="preserve" width="512px" height="512px">
<g>
	<path d="M251.714,91.219c-1.676-2.609-3.408-5.307-3.918-7.22c-0.564-2.107-0.417-5.435-0.275-8.653   c0.265-5.995,0.595-13.456-3.227-20.062c-3.868-6.683-10.545-10.136-15.908-12.909c-2.82-1.457-5.735-2.964-7.213-4.443   c-1.479-1.477-2.985-4.392-4.443-7.212c-2.773-5.364-6.226-12.041-12.91-15.909c-5.173-2.993-10.683-3.377-14.906-3.377   c-1.768,0-3.488,0.076-5.154,0.149c-1.528,0.067-2.972,0.131-4.323,0.131c-1.892,0-3.309-0.133-4.332-0.406   c-1.911-0.511-4.608-2.242-7.217-3.917C162.759,4.098,156.376,0,148.5,0c-7.875,0-14.259,4.098-19.387,7.391   c-2.608,1.675-5.306,3.406-7.216,3.917c-1.021,0.274-2.438,0.406-4.33,0.406c-1.352,0-2.796-0.063-4.324-0.131   c-1.666-0.073-3.389-0.15-5.157-0.15c-4.222,0-9.731,0.384-14.905,3.376c-6.685,3.868-10.137,10.545-12.909,15.91   c-1.458,2.819-2.965,5.734-4.442,7.212c-1.479,1.479-4.394,2.985-7.213,4.443c-5.364,2.772-12.042,6.226-15.908,12.909   c-3.822,6.605-3.493,14.066-3.228,20.063c0.142,3.219,0.289,6.546-0.275,8.654c-0.511,1.911-2.242,4.608-3.918,7.217   c-3.293,5.129-7.391,11.512-7.391,19.387s4.098,14.258,7.39,19.386c1.676,2.608,3.408,5.306,3.918,7.218   c0.564,2.109,0.417,5.437,0.275,8.655c-0.265,5.995-0.595,13.455,3.227,20.06c3.868,6.684,10.545,10.137,15.91,12.91   c2.818,1.458,5.733,2.965,7.211,4.443c1.479,1.477,2.985,4.393,4.443,7.211c2.337,4.521,5.163,9.966,9.991,13.884v82.842   c0,3.584,1.959,6.88,5.104,8.595c3.147,1.715,6.979,1.572,9.989-0.369l43.145-27.836l43.145,27.836   c1.61,1.039,3.456,1.563,5.307,1.563c1.607,0,3.22-0.396,4.683-1.193c3.145-1.715,5.104-5.011,5.104-8.595V204.37   c4.828-3.918,7.654-9.362,9.99-13.883c1.458-2.818,2.965-5.733,4.442-7.212c1.479-1.478,4.394-2.984,7.213-4.442   c5.365-2.772,12.042-6.225,15.908-12.909c3.822-6.604,3.493-14.066,3.228-20.061c-0.142-3.219-0.289-6.546,0.275-8.655   c0.51-1.91,2.242-4.607,3.917-7.216c3.293-5.128,7.391-11.512,7.391-19.388C259.103,102.729,255.006,96.346,251.714,91.219z    M153.806,247.729c-3.229-2.084-7.383-2.084-10.611,0l-33.356,21.52v-59.508c1.154-0.027,2.295-0.068,3.403-0.117   c1.529-0.068,2.972-0.131,4.323-0.131c1.892,0,3.309,0.133,4.332,0.406c1.911,0.51,4.608,2.242,7.217,3.917   c5.128,3.293,11.511,7.391,19.387,7.391c7.875,0,14.259-4.098,19.387-7.391c2.608-1.675,5.306-3.407,7.216-3.917   c1.021-0.273,2.439-0.406,4.33-0.406c1.352,0,2.795,0.063,4.324,0.131c1.108,0.05,2.25,0.091,3.405,0.118v59.507L153.806,247.729z    M235.239,119.414c-2.37,3.693-5.056,7.877-6.357,12.738c-1.341,5.018-1.117,10.094-0.919,14.572   c0.159,3.629,0.341,7.742-0.615,9.396c-0.999,1.729-4.694,3.638-7.955,5.323c-3.953,2.045-8.436,4.361-12.064,7.99   c-3.629,3.628-5.945,8.11-7.989,12.064c-1.686,3.261-3.596,6.956-5.326,7.956c-0.854,0.494-2.569,0.745-5.101,0.745   c-1.336,0-2.773-0.063-4.293-0.131c-1.674-0.074-3.404-0.15-5.188-0.15c-3.673,0-6.654,0.341-9.385,1.069   c-4.861,1.301-9.046,3.986-12.738,6.357c-3.13,2.011-6.677,4.288-8.81,4.288s-5.681-2.277-8.81-4.288   c-3.693-2.37-7.878-5.056-12.738-6.355c-2.73-0.731-5.714-1.07-9.388-1.07c-1.783,0-3.514,0.075-5.187,0.15   c-1.521,0.066-2.956,0.13-4.291,0.13c-2.531,0-4.248-0.251-5.103-0.745c-1.729-1-3.639-4.695-5.325-7.956   c-2.043-3.953-4.36-8.436-7.989-12.063c-3.628-3.629-8.11-5.946-12.063-7.989c-3.261-1.687-6.956-3.596-7.955-5.325   c-0.957-1.652-0.775-5.765-0.615-9.394c0.198-4.477,0.422-9.554-0.919-14.571c-1.3-4.863-3.987-9.048-6.357-12.741   c-2.01-3.13-4.287-6.677-4.287-8.809c0-2.132,2.277-5.68,4.288-8.81c2.37-3.692,5.057-7.877,6.358-12.739   c1.341-5.019,1.117-10.094,0.919-14.572c-0.16-3.629-0.342-7.742,0.614-9.396c1-1.729,4.695-3.638,7.955-5.324   c3.954-2.044,8.437-4.36,12.064-7.989c3.629-3.628,5.945-8.11,7.99-12.064c1.686-3.261,3.595-6.956,5.323-7.955   c0.854-0.494,2.571-0.745,5.102-0.745c1.336,0,2.772,0.063,4.294,0.131c1.673,0.073,3.404,0.15,5.188,0.15   c3.673,0,6.654-0.341,9.385-1.069c4.861-1.301,9.046-3.986,12.738-6.357c3.13-2.01,6.677-4.287,8.81-4.287s5.681,2.277,8.81,4.287   c3.693,2.371,7.878,5.057,12.738,6.355c2.73,0.731,5.714,1.071,9.388,1.071c1.783,0,3.514-0.075,5.187-0.15   c1.52-0.066,2.956-0.13,4.291-0.13c2.531,0,4.248,0.25,5.102,0.744c1.73,1.001,3.639,4.696,5.325,7.957   c2.044,3.953,4.36,8.436,7.989,12.063c3.628,3.629,8.11,5.945,12.064,7.99c3.26,1.686,6.955,3.596,7.954,5.324   c0.957,1.652,0.775,5.766,0.615,9.394c-0.198,4.479-0.422,9.555,0.919,14.571c1.3,4.863,3.987,9.048,6.357,12.741   c2.01,3.13,4.287,6.677,4.287,8.809C239.527,112.736,237.25,116.284,235.239,119.414z" fill="#FFFFFF"/>
	<path d="M148.498,44.191c-36.522,0-66.237,29.793-66.237,66.412c0,36.619,29.715,66.411,66.237,66.411   c36.526,0,66.241-29.792,66.241-66.411C214.739,73.984,185.024,44.191,148.498,44.191z M148.498,157.439   c-25.729,0-46.662-21.011-46.662-46.836s20.933-46.836,46.662-46.836c25.732,0,46.666,21.011,46.666,46.836   S174.23,157.439,148.498,157.439z" fill="#FFFFFF"/>
	<path d="M148.5,87.602c-3.784,0-6.852,3.067-6.852,6.852v32.301c0,3.784,3.067,6.852,6.852,6.852s6.852-3.067,6.852-6.852V94.453   C155.352,90.669,152.284,87.602,148.5,87.602z" fill="#FFFFFF"/>
</g>
<g>
</g>
<g>
</g>
<g>
</g>
<g>
</g>
<g>
</g>
<g>
</g>
<g>
</g>
<g>
</g>
<g>
</g>
<g>
</g>
<g>
</g>
<g>
</g>
<g>
</g>
<g>
</g>
<g>
</g>
</svg>
