<?xml version="1.0" encoding="iso-8859-1"?>
<!-- Generator: Adobe Illustrator 19.0.0, SVG Export Plug-In . SVG Version: 6.00 Build 0)  -->
<svg xmlns="http://www.w3.org/2000/svg" xmlns:xlink="http://www.w3.org/1999/xlink" version="1.1" id="Layer_1" x="0px" y="0px" viewBox="0 0 511.999 511.999" style="enable-background:new 0 0 511.999 511.999;" xml:space="preserve" width="512px" height="512px">
<g>
	<g>
		<path d="M501.8,420.786h-39.577V162.029H501.8c4.63,0,8.678-3.119,9.861-7.594c1.182-4.476-0.799-9.187-4.824-11.474    L261.036,3.383c-3.124-1.774-6.949-1.774-10.073,0L5.164,142.961c-4.026,2.287-6.007,6.997-4.824,11.474    c1.182,4.476,5.231,7.594,9.861,7.594h39.577v258.757H10.2c-5.633,0-10.199,4.566-10.199,10.199v68.762    c0,5.633,4.566,10.199,10.199,10.199h491.6c5.633,0,10.199-4.566,10.199-10.199v-68.762    C511.999,425.352,507.433,420.786,501.8,420.786z M48.816,141.632v-0.001L256,23.983l207.184,117.649H48.816z M441.824,162.029    v258.757h-35.608V162.029H441.824z M385.819,162.029v258.757h-35.609V162.029H385.819z M329.81,162.029v258.757h-35.608V162.029    H329.81z M273.803,162.029v258.757h-35.608V162.029H273.803z M217.797,162.029v258.757h-35.608V162.029H217.797z M161.791,162.029    v258.757h-35.609V162.029H161.791z M105.783,162.029v258.757H70.175V162.029H105.783z M491.6,489.548H20.399v-48.363H491.6    V489.548z" fill="#FFFFFF"/>
	</g>
</g>
<g>
	<g>
		<path d="M256,56.449c-19.205,0-34.83,15.625-34.83,34.83s15.624,34.83,34.83,34.83s34.83-15.625,34.83-34.83    S275.205,56.449,256,56.449z M256,105.709c-7.957,0-14.432-6.474-14.432-14.432S248.041,76.846,256,76.846    s14.432,6.474,14.432,14.432S263.957,105.709,256,105.709z" fill="#FFFFFF"/>
	</g>
</g>
<g>
	<g>
		<path d="M189.29,455.68H47.659c-5.633,0-10.199,4.566-10.199,10.199s4.566,10.199,10.199,10.199h141.63    c5.633,0,10.199-4.566,10.199-10.199S194.923,455.68,189.29,455.68z" fill="#FFFFFF"/>
	</g>
</g>
<g>
	<g>
		<path d="M234.448,455.68h-11.289c-5.633,0-10.199,4.566-10.199,10.199s4.566,10.199,10.199,10.199h11.289    c5.633,0,10.199-4.566,10.199-10.199S240.081,455.68,234.448,455.68z" fill="#FFFFFF"/>
	</g>
</g>
<g>
</g>
<g>
</g>
<g>
</g>
<g>
</g>
<g>
</g>
<g>
</g>
<g>
</g>
<g>
</g>
<g>
</g>
<g>
</g>
<g>
</g>
<g>
</g>
<g>
</g>
<g>
</g>
<g>
</g>
</svg>
